<svg width="21" height="21" viewBox="0 0 21 21" fill="none" xmlns="http://www.w3.org/2000/svg">
<path d="M9.00004 1C6.66004 1 3.71004 2.72 3.76004 7.16L0.0400357 11.98C-0.0699643 12.12 0.0600357 12.3 0.260036 12.3L2.74004 13.53C2.87004 14.45 3.35004 17.13 3.61004 18.47C3.70004 18.89 7.80004 18.57 7.80004 18.57L9.00004 21" fill="white" fill-opacity="0.3"/>
<path fill-rule="evenodd" clip-rule="evenodd" d="M13.845 1.20218C13.9567 0.890192 13.7943 0.546754 13.4823 0.435094C13.1703 0.323434 12.8269 0.485835 12.7152 0.797826L11.6952 3.64783C11.5836 3.95982 11.746 4.30326 12.058 4.41492C12.3699 4.52658 12.7134 4.36417 12.825 4.05218L13.845 1.20218ZM20.0494 4.22033C20.3147 4.02176 20.3688 3.64573 20.1702 3.38044C19.9717 3.11516 19.5956 3.06108 19.3303 3.25966L15.9103 5.81966C15.6451 6.01823 15.591 6.39426 15.7896 6.65955C15.9881 6.92483 16.3642 6.97891 16.6294 6.78033L20.0494 4.22033ZM16.1315 10.8261C16.1557 10.4956 16.4433 10.2474 16.7738 10.2716L20.0438 10.5116C20.3743 10.5359 20.6225 10.8234 20.5982 11.1539C20.574 11.4844 20.2864 11.7326 19.9559 11.7084L16.6859 11.4684C16.3555 11.4441 16.1072 11.1566 16.1315 10.8261ZM9.72009 16.31C9.38872 16.31 9.12009 16.5787 9.12009 16.91C9.12009 17.2414 9.38872 17.51 9.72009 17.51H12.3501C12.6815 17.51 12.9501 17.2414 12.9501 16.91C12.9501 16.5787 12.6815 16.31 12.3501 16.31H9.72009ZM9.12009 14.33C9.12009 13.9986 9.38872 13.73 9.72009 13.73H9.87951C8.5603 12.6226 6.75422 10.193 8.23018 8.25002C9.67018 6.36002 12.4002 6.36002 13.8402 8.25002C15.3146 10.1909 13.5208 12.6245 12.1985 13.73H12.3501C12.6815 13.73 12.9501 13.9986 12.9501 14.33C12.9501 14.6613 12.6815 14.93 12.3501 14.93H9.72009C9.38872 14.93 9.12009 14.6613 9.12009 14.33ZM11.6402 13.73V11.1748C11.9187 10.9752 12.1001 10.6488 12.1001 10.28C12.1001 9.67251 11.6077 9.18003 11.0001 9.18003C10.3926 9.18003 9.90015 9.67251 9.90015 10.28C9.90015 10.6831 10.1169 11.0355 10.4402 11.227V13.73H11.6402ZM10.9731 10.1837C10.9858 10.1823 10.9987 10.1813 11.0117 10.1807C11.0079 10.1803 11.0041 10.18 11.0001 10.18C10.9908 10.18 10.9817 10.1813 10.9731 10.1837Z" fill="white" fill-opacity="0.6"/>
</svg>
