<svg width="24" height="24" viewBox="0 0 24 24" fill="none" xmlns="http://www.w3.org/2000/svg">
<path fill-rule="evenodd" clip-rule="evenodd" d="M13.87 4.89L13.56 2.44C13.53 2.19 13.32 2 13.06 2H9.95001C9.70001 2 9.48001 2.19 9.45001 2.44L9.18001 4.59C9.16001 4.77 9.03001 4.93 8.86001 4.99C8.02001 5.3 7.22001 5.78 6.53001 6.4L4.25001 5.44C4.02001 5.34 3.75001 5.43 3.62001 5.65L2.06001 8.35C1.94001 8.57 2.00001 8.85 2.20001 9L4.17001 10.49C3.96001 11.5 3.96001 12.53 4.16001 13.51H4.17001L2.20001 15C2.00001 15.15 1.94001 15.43 2.07001 15.65L3.63001 18.35C3.76001 18.57 4.03001 18.66 4.26001 18.56L6.54001 17.6L6.53001 17.61C6.90001 17.94 7.32001 18.24 7.77001 18.5C8.22001 18.76 8.68001 18.97 9.16001 19.13V19.11L9.47001 21.56C9.48001 21.81 9.70001 22 9.95001 22H13.07C13.32 22 13.53 21.81 13.57 21.56L13.84 19.41C13.86 19.23 13.99 19.07 14.16 19.01C15 18.7 15.8 18.22 16.49 17.6L18.77 18.56C19 18.66 19.27 18.57 19.4 18.35L20.96 15.65C21.09 15.43 21.03 15.15 20.83 15L18.86 13.51C19.07 12.5 19.07 11.47 18.87 10.49H18.86L20.81 9C21.01 8.85 21.07 8.57 20.94 8.35L19.38 5.65C19.25 5.43 18.98 5.34 18.75 5.44L16.48 6.4L16.49 6.39C16.12 6.06 15.7 5.76 15.25 5.5C14.8 5.24 14.34 5.03 13.86 4.87" fill="white" fill-opacity="0.3"/>
<path d="M11.51 16C13.7191 16 15.51 14.2091 15.51 12C15.51 9.79086 13.7191 8 11.51 8C9.30087 8 7.51001 9.79086 7.51001 12C7.51001 14.2091 9.30087 16 11.51 16Z" stroke="white" stroke-opacity="0.6" stroke-width="1.2" stroke-miterlimit="10" stroke-linecap="round" stroke-linejoin="round"/>
</svg>
