<svg width="24" height="24" viewBox="0 0 24 24" fill="none" xmlns="http://www.w3.org/2000/svg">
<path d="M18 11.66V21C18 21.55 17.55 22 17 22H3C2.45 22 2 21.55 2 21V7.00001C2 6.45001 2.45 6.00001 3 6.00001H12.34" fill="white" fill-opacity="0.3"/>
<path fill-rule="evenodd" clip-rule="evenodd" d="M16 1.4C15.6687 1.4 15.4 1.66863 15.4 2C15.4 2.33137 15.6687 2.6 16 2.6H20.5515L9.57576 13.5757C9.34145 13.8101 9.34145 14.1899 9.57576 14.4243C9.81007 14.6586 10.19 14.6586 10.4243 14.4243L21.4 3.44853V8C21.4 8.33137 21.6687 8.6 22 8.6C22.3314 8.6 22.6 8.33137 22.6 8V2C22.6 1.66863 22.3314 1.4 22 1.4H16Z" fill="white" fill-opacity="0.6"/>
</svg>
