<svg width="24" height="25" viewBox="0 0 24 25" fill="none" xmlns="http://www.w3.org/2000/svg">
<path fill-rule="evenodd" clip-rule="evenodd" d="M19.5 7C19.5 8.38071 18.3807 9.5 17 9.5C15.6193 9.5 14.5 8.38071 14.5 7C14.5 5.61929 15.6193 4.5 17 4.5C18.3807 4.5 19.5 5.61929 19.5 7ZM12.8775 15.0393L12.6069 14.819C13.4558 13.4355 15.1078 12.5 17 12.5C19.76 12.5 22 14.49 22 16.94C20.03 17.39 18.31 17.5 17 17.5C16.2001 17.5 15.452 17.4574 14.7623 17.389L14.2087 16.5299C13.8533 15.9784 13.4097 15.4725 12.8775 15.0393Z" fill="white" fill-opacity="0.3"/>
<path fill-rule="evenodd" clip-rule="evenodd" d="M11 8.5C11 10.1569 9.65685 11.5 8 11.5C6.34315 11.5 5 10.1569 5 8.5C5 6.84315 6.34315 5.5 8 5.5C9.65685 5.5 11 6.84315 11 8.5ZM8 20.5C9.57 20.5 11.64 20.37 14 19.83C14 16.89 11.31 14.5 8 14.5C4.69 14.5 2 16.89 2 19.83C3.52 20.18 5.57 20.5 8 20.5Z" fill="white" fill-opacity="0.6"/>
</svg>
